# xmcd CD database file
#
# Track frame offsets:
#	150
#	14359
#	32851
#	57493
#	74884
#	90189
#	119367
#	144299
#	162823
#	180967
#
# Disc length: 2615 seconds
#
# Revision: 0
# Processed by: cddbd v1.5.2PL0 Copyright (c) Steve Scherf et al.
# Submitted via: CDex 1.51
#
DISCID=800a350a
DTITLE=ROOMFUL OF BLUES - Jump Blues Classics(Essential Recordings)
DYEAR=2009
DGENRE=Blues
TTITLE0=Lillie Mae
TTITLE1=Lost Mind
TTITLE2=Danger Zone
TTITLE3=I Tried
TTITLE4=Smack Dab In The Middle
TTITLE5=I Smell Trouble
TTITLE6=The Comeback
TTITLE7=Blind Love
TTITLE8=I'm Just Your Fool
TTITLE9=Mister Dollar
EXTD=YEAR: 2009
EXTT0=
EXTT1=
EXTT2=
EXTT3=
EXTT4=
EXTT5=
EXTT6=
EXTT7=
EXTT8=
EXTT9=
PLAYORDER=
